<?xml version="1.0" standalone="no"?>
<!DOCTYPE svg PUBLIC "-//W3C//DTD SVG 20010904//EN"
 "http://www.w3.org/TR/2001/REC-SVG-20010904/DTD/svg10.dtd">
<svg version="1.0" xmlns="http://www.w3.org/2000/svg"
 width="497.000000pt" height="470.000000pt" viewBox="0 0 497.000000 470.000000"
 preserveAspectRatio="xMidYMid meet">

<g transform="translate(0.000000,470.000000) scale(0.100000,-0.100000)"
fill="#000000" stroke="none">
<path d="M1243 4693 c687 -2 1807 -2 2490 0 683 1 122 2 -1248 2 -1369 0
-1928 -1 -1242 -2z"/>
<path d="M2221 2632 c-69 -35 -92 -103 -57 -170 42 -82 170 -82 212 0 20 39
14 110 -12 140 -19 21 -73 48 -96 48 -7 0 -28 -8 -47 -18z"/>
<path d="M1300 1900 l0 -660 120 0 120 0 0 398 0 398 28 26 c47 45 95 68 140
68 37 0 45 -4 62 -32 19 -32 20 -52 20 -445 l0 -413 126 0 126 0 -5 448 c-4
474 -6 497 -53 560 -39 51 -78 66 -169 66 -88 1 -121 -12 -209 -78 -25 -20
-51 -36 -56 -36 -6 0 -10 68 -10 180 l0 180 -120 0 -120 0 0 -660z"/>
<path d="M732 2305 c-67 -19 -84 -28 -134 -73 -67 -60 -83 -102 -83 -212 1
-77 5 -103 22 -135 35 -67 103 -120 241 -189 147 -74 186 -103 202 -150 26
-79 -38 -136 -136 -122 -63 8 -80 23 -164 140 -41 58 -79 106 -85 106 -5 0
-38 -37 -72 -82 l-62 -82 27 -50 c33 -61 113 -150 164 -182 152 -96 421 -57
511 74 63 91 76 220 31 310 -37 74 -98 123 -256 204 -184 94 -223 138 -181
209 21 36 63 53 110 46 57 -10 88 -38 139 -123 10 -16 16 -15 107 20 53 21 97
42 97 48 0 24 -63 118 -106 158 -93 86 -246 121 -372 85z"/>
<path d="M2929 2301 c-49 -19 -127 -69 -148 -95 -22 -27 -30 -18 -33 37 l-3
52 -115 0 -115 0 -3 -527 -2 -528 120 0 120 0 0 391 c0 228 4 398 10 408 5 10
33 35 63 55 45 31 61 37 97 34 34 -2 48 -9 64 -31 20 -28 21 -40 24 -443 l3
-414 120 0 120 0 -3 458 c-3 440 -4 459 -24 502 -49 106 -173 149 -295 101z"/>
<path d="M3603 2305 c-120 -34 -205 -104 -245 -203 -21 -53 -23 -74 -26 -311
-3 -233 -2 -259 17 -321 48 -156 189 -250 376 -250 194 1 326 91 370 254 26
97 26 97 -112 94 l-117 -3 -7 -32 c-15 -76 -76 -119 -156 -110 -93 10 -125 58
-127 191 l-1 91 268 3 267 2 0 154 c0 122 -4 164 -19 209 -35 108 -102 176
-215 220 -68 26 -203 32 -273 12z m188 -200 c46 -24 69 -70 69 -138 l0 -58
-142 3 -143 3 2 54 c2 29 11 67 21 85 34 59 128 84 193 51z"/>
<path d="M2150 1770 l0 -530 120 0 120 0 0 530 0 530 -120 0 -120 0 0 -530z"/>
<path d="M4410 2080 c-22 -22 -25 -42 -10 -70 7 -13 6 -27 -2 -45 -9 -19 -9
-31 -1 -44 6 -10 9 -30 6 -45 l-5 -27 83 3 c68 2 84 6 87 19 2 13 -8 17 -58
21 -61 4 -83 18 -73 45 4 9 25 13 69 13 56 0 64 2 64 19 0 23 -19 31 -74 31
-48 0 -72 16 -55 37 7 8 34 13 71 13 56 0 59 1 56 23 -3 20 -9 22 -70 25 -57
2 -70 0 -88 -18z"/>
<path d="M4416 1789 c-30 -35 -32 -58 -11 -98 27 -54 108 -61 145 -13 72 90
-60 200 -134 111z m105 -35 c18 -22 0 -48 -37 -52 -35 -5 -58 22 -43 49 12 24
61 25 80 3z"/>
<path d="M4505 1609 c-5 -14 -1 -25 12 -34 14 -11 16 -18 7 -32 -13 -22 -60
-29 -80 -12 -18 15 -18 24 1 43 17 16 10 46 -11 46 -19 0 -44 -40 -44 -73 0
-71 114 -108 159 -51 26 33 27 86 4 106 -32 27 -41 29 -48 7z"/>
<path d="M4149 1401 c-23 -24 -29 -38 -29 -74 0 -38 5 -49 30 -70 16 -14 39
-29 51 -32 31 -10 96 22 108 54 21 54 18 82 -15 120 -22 26 -33 31 -71 31 -36
0 -50 -6 -74 -29z"/>
<path d="M395 995 c-17 -16 -26 -37 -27 -62 -3 -72 4 -127 19 -150 14 -20 22
-23 79 -21 l64 2 0 63 c0 58 -2 63 -24 69 -32 8 -58 2 -64 -13 -2 -8 5 -13 17
-13 25 0 36 -21 27 -54 -6 -24 -36 -39 -53 -27 -21 13 -33 52 -33 103 0 88 49
129 86 73 20 -31 34 -32 34 -2 0 56 -81 77 -125 32z"/>
<path d="M3990 890 c0 -109 2 -130 15 -130 12 0 15 15 15 74 0 77 13 104 45
92 12 -4 15 -23 15 -86 0 -75 1 -80 21 -80 20 0 21 4 17 90 -3 101 -11 114
-65 105 -32 -6 -33 -5 -33 30 0 24 -4 35 -15 35 -13 0 -15 -21 -15 -130z"/>
<path d="M1210 985 c0 -13 -8 -28 -17 -34 -17 -9 -17 -11 -1 -23 13 -10 18
-31 20 -88 l3 -75 33 -3 c36 -4 43 12 12 28 -17 9 -20 21 -20 70 0 50 3 60 20
65 11 3 20 10 20 15 0 4 -9 10 -20 13 -14 3 -20 14 -20 31 0 16 -6 26 -15 26
-9 0 -15 -9 -15 -25z"/>
<path d="M3197 1004 c-4 -4 -7 -17 -7 -30 0 -12 -6 -24 -12 -27 -10 -4 -10 -7
0 -18 7 -7 12 -39 12 -75 0 -81 6 -94 41 -94 31 0 39 17 14 26 -11 5 -15 22
-15 69 0 47 4 64 15 69 19 7 20 26 1 26 -8 0 -16 12 -18 27 -3 26 -18 39 -31
27z"/>
<path d="M3710 985 c0 -13 -8 -28 -17 -34 -17 -9 -17 -11 -1 -23 13 -10 18
-31 20 -88 l3 -75 33 -3 c36 -4 43 12 12 28 -17 9 -20 21 -20 70 0 50 3 60 20
65 11 3 20 10 20 15 0 4 -9 10 -20 13 -14 3 -20 14 -20 31 0 16 -6 26 -15 26
-9 0 -15 -9 -15 -25z"/>
<path d="M643 953 l-33 -4 0 -95 c0 -87 1 -94 20 -94 18 0 20 7 20 68 0 71 5
85 33 95 19 7 24 38 5 35 -7 0 -28 -3 -45 -5z"/>
<path d="M790 938 c-16 -17 -20 -35 -20 -83 0 -79 23 -103 91 -97 13 2 39 40
39 57 0 14 -31 2 -40 -15 -14 -25 -36 -26 -50 -1 -21 41 -13 51 40 51 l50 0 0
35 c0 66 -67 99 -110 53z m69 -27 c13 -23 5 -31 -31 -31 -31 0 -33 3 -18 31
13 24 36 24 49 0z"/>
<path d="M1002 944 c-24 -16 -29 -39 -11 -50 7 -4 19 3 29 16 20 26 50 22 50
-8 0 -13 -12 -22 -40 -31 -45 -13 -51 -20 -52 -62 -1 -36 12 -51 43 -50 13 0
41 1 62 1 33 0 38 3 31 18 -4 9 -10 49 -12 87 -2 50 -8 74 -20 83 -22 16 -53
15 -80 -4z m68 -118 c0 -28 -24 -51 -45 -42 -20 7 -19 43 3 55 28 17 42 13 42
-13z"/>
<path d="M1505 935 c-20 -20 -25 -34 -25 -78 0 -68 22 -100 69 -100 33 0 60
24 61 56 0 26 -25 21 -38 -8 -12 -27 -19 -30 -40 -17 -11 8 -16 43 -13 103 1
36 31 47 53 20 21 -26 38 -27 38 -2 0 22 -35 51 -63 51 -10 0 -29 -11 -42 -25z"/>
<path d="M1720 953 c-19 -8 -30 -23 -30 -45 0 -25 27 -22 35 3 5 14 14 19 28
17 37 -5 26 -36 -23 -60 -37 -19 -46 -29 -48 -54 -4 -37 16 -56 55 -55 16 0
43 1 61 1 31 0 42 12 22 25 -5 3 -10 40 -10 80 0 63 -3 76 -19 85 -21 11 -47
12 -71 3z m60 -127 c0 -28 -24 -51 -45 -42 -32 12 -10 66 27 66 12 0 18 -8 18
-24z"/>
<path d="M1956 953 c-4 -4 -17 -8 -29 -8 -21 0 -22 -4 -22 -90 0 -77 2 -90 18
-93 15 -3 17 5 17 61 0 78 6 97 31 97 12 0 19 7 19 20 0 20 -20 27 -34 13z"/>
<path d="M2084 946 c-16 -12 -19 -27 -19 -90 0 -42 5 -80 11 -86 34 -34 126 5
110 47 -7 16 -10 15 -30 -9 -27 -35 -44 -35 -56 -2 -16 41 -13 44 40 44 l50 0
0 35 c0 62 -58 95 -106 61z m64 -28 c21 -21 13 -38 -18 -38 -22 0 -30 5 -30
18 0 32 25 43 48 20z"/>
<path d="M2300 942 c-44 -36 -36 -163 11 -181 49 -17 100 17 84 57 -5 13 -10
12 -28 -12 -26 -32 -52 -28 -60 9 -6 32 -2 35 50 35 l43 0 0 39 c0 63 -53 91
-100 53z m58 -24 c21 -21 13 -38 -18 -38 -22 0 -30 5 -30 18 0 32 25 43 48 20z"/>
<path d="M2523 953 l-33 -4 0 -95 c0 -77 3 -94 15 -94 12 0 15 13 15 59 0 73
6 90 37 102 14 5 23 14 21 21 -5 14 -13 16 -55 11z"/>
<path d="M2662 944 c-22 -15 -29 -48 -14 -70 4 -7 24 -19 45 -27 26 -11 37
-22 37 -37 0 -34 -30 -37 -56 -5 -20 25 -24 27 -30 12 -21 -56 75 -88 113 -38
28 37 10 73 -49 99 -18 7 -28 19 -28 32 0 27 36 27 45 0 8 -26 35 -26 35 -1 0
45 -55 65 -98 35z"/>
<path d="M3002 944 c-14 -10 -22 -25 -22 -45 0 -26 6 -32 45 -49 31 -13 45
-25 45 -39 0 -36 -53 -37 -63 0 -8 30 -29 23 -25 -8 6 -55 90 -64 118 -13 17
31 3 59 -38 78 -45 21 -54 32 -40 49 16 19 36 16 43 -8 7 -22 28 -21 33 3 4
21 -25 48 -51 48 -13 0 -33 -7 -45 -16z"/>
<path d="M3346 944 c-20 -19 -21 -54 -2 -54 7 0 16 9 19 21 4 15 12 20 29 17
38 -5 28 -35 -22 -60 -37 -19 -46 -29 -48 -54 -3 -33 15 -55 45 -55 10 1 37 1
61 1 40 0 54 11 32 25 -5 3 -10 40 -10 80 0 63 -3 76 -19 85 -29 15 -67 12
-85 -6z m74 -112 c0 -28 -25 -56 -44 -49 -19 7 -21 38 -4 55 18 18 48 15 48
-6z"/>
<path d="M3573 953 l-33 -4 0 -95 c0 -77 3 -94 15 -94 12 0 15 13 15 61 0 69
12 99 40 99 13 0 20 7 20 20 0 11 -6 19 -12 18 -7 0 -28 -3 -45 -5z"/>
<path d="M4225 935 c-20 -19 -25 -34 -25 -75 0 -28 5 -60 11 -71 31 -59 138
-33 115 28 -6 15 -10 13 -29 -11 -26 -32 -52 -28 -60 9 -6 32 -2 35 50 35 l43
0 0 39 c0 67 -59 93 -105 46z m63 -17 c21 -21 13 -38 -18 -38 -23 0 -30 5 -30
19 0 17 11 27 31 30 3 1 10 -4 17 -11z"/>
<path d="M4453 953 l-33 -4 0 -95 c0 -76 3 -94 15 -94 11 0 15 17 17 72 3 66
5 74 28 85 25 12 34 35 15 38 -5 1 -25 0 -42 -2z"/>
<path d="M4599 941 c-32 -26 -40 -125 -12 -160 36 -44 113 -26 113 25 0 31 -9
30 -36 -3 -19 -24 -24 -26 -38 -14 -9 7 -16 24 -16 37 0 22 4 24 44 24 25 0
48 4 51 10 3 5 1 27 -5 49 -7 27 -17 41 -33 45 -34 9 -43 7 -68 -13z m65 -27
c11 -28 7 -34 -24 -34 -31 0 -39 17 -18 38 17 17 35 15 42 -4z"/>
<path d="M1243 3 c687 -2 1807 -2 2490 0 683 1 122 2 -1248 2 -1369 0 -1928
-1 -1242 -2z"/>
</g>
</svg>
